<svg xmlns="http://www.w3.org/2000/svg" viewBox="0 0 64 64">
    <path fill="#ff5d34"
        d="M64,32l-4-5.56,1.61-6.69L55.7,16.17l-1.07-6.8L47.83,8.3,44.25,2.43,37.56,4,32,0,15.13,32,32,64l5.56-4,6.69,1.61,3.58-5.87,6.8-1.07,1.07-6.8,5.87-3.58L60,37.56Z"> </path>
    <path fill="#ff7b2d"
        d="M26.44,4,19.75,2.43,16.17,8.3,9.37,9.37,8.3,16.17,2.43,19.75,4,26.44,0,32l4,5.56L2.43,44.25,8.3,47.83l1.07,6.8,6.8,1.07,3.58,5.87L26.44,60,32,64V0Z"></path>
    <path fill="#ffe7b5" d="M32,11.38,19.08,32,32,52.62a20.62,20.62,0,0,0,0-41.24Z"> </path>
    <path fill="#cc3245"
        d="M32,11.38a20.58,20.58,0,0,0-16.5,8.25l-3.71,8.25a20.91,20.91,0,0,0,0,8.24l3.71,8.25A20.58,20.58,0,0,0,32,52.62V44.37l-3.63-4.12L32,36.12V27.88l-3.63-3.67L32,19.63Z"></path>
    <path fill="#ff3e3a" d="M32,36.12v8.25H15.5a20.56,20.56,0,0,1-3.71-8.25Z"> </path>
    <path fill="#ff3e3a" d="M32,19.63v8.25H11.79a20.56,20.56,0,0,1,3.71-8.25Z"></path>
</svg>