<svg xmlns="http://www.w3.org/2000/svg" viewBox="0 0 64 64">
    <g id="iconDarkMode">
        <g id="Night_Mode" data-name="Night Mode">
            <path fill="#fed843"
                d="M32,64l-9.38-9.38H9.38V41.38L0,32l9.38-9.38V9.38H22.62L32,0l9.38,9.38H54.62V22.62L64,32l-9.38,9.38V54.62H41.38Z"></path>
        </g>
        <path fill="#fabe2c" d="M41.38,54.62H54.62V41.38L64,32l-9.38-9.38V9.38H41.38L32,0V64Z"></path>
        <path fill="#474f54"
            d="M32,46.31c-6.79,0-10.17-4.56-12.74-6.25L24.06,39a7.14,7.14,0,0,0,0-13.92l-4.8-1.12c2.59-1.7,5.95-6.25,12.74-6.25a14.33,14.33,0,0,1,0,28.65Z"></path>
        <path fill="#32393f"
            d="M46.31,32A14.33,14.33,0,0,0,32,17.69V46.31A14.33,14.33,0,0,0,46.31,32Z"></path>
    </g>
</svg>